{
  "title": "Formula.1.2016x17.Japan.Race.SkyF1HD.1080p50-smcgill1969",
  "uid": 15993032,
  "size": 13154249702,
  "categoryP": "video",
  "categoryS": "other",
  "magnet": "?xt=urn:btih:9c2f7b911d28d3ea173922691caed885d702559a&amp;dn=Formula.1.2016x17.Japan.Race.SkyF1HD.1080p50-smcgill1969&amp;tr=udp%3A%2F%2Ftracker.leechers-paradise.org%3A6969&amp;tr=udp%3A%2F%2Fzer0day.ch%3A1337&amp;tr=udp%3A%2F%2Fopen.demonii.com%3A1337&amp;tr=udp%3A%2F%2Ftracker.coppersurfer.tk%3A6969&amp;tr=udp%3A%2F%2Fexodus.desync.com%3A6969",
  "seeders": 70,
  "leechers": 89,
  "uploader": "GaYoonFan",
  "files": 3,
  "time": 1476038611,
  "description": "Formula.1.2016x17.Japan.Race.SkyF1HD.1080p50-smcgill1969:\r\n\r\nThe 2016 Japanese Grand Prix from Suzuka.\r\n\r\n Video\r\n ID : 1\r\n Format : AVC\r\n Format/Info : Advanced Video Codec\r\n Format profile :   \r\n Format settings, CABAC : Yes\r\n Format settings, ReFrames : 2 frames\r\n Format settings, GOP : M=3, N=24\r\n Codec ID : avc1\r\n Codec ID/Info : Advanced Video Coding\r\n Duration : 1h 25mn\r\n Duration_FirstFrame : 8ms\r\n Bit rate mode : Variable\r\n Bit rate : 6 002 Kbps\r\n Maximum bit rate : 12.4 Mbps\r\n Width : 1 920 pixels\r\n Height : 1 080 pixels\r\n Original height : 1 088 pixels\r\n Display aspect ratio : 16:9\r\n Original display aspect ratio : 16:9\r\n Frame rate mode : Constant\r\n Frame rate : 50.000 fps\r\n Color space : YUV\r\n Chroma subsampling : 4:2:0\r\n Bit depth : 8 bits\r\n Scan type : Progressive\r\n Bits/(Pixel*Frame) : 0.058\r\n Stream size : 3.57 GiB (96%)\r\n Language : English\r\n Encoded date : UTC 2016-10-09 03:26:19\r\n Tagged date : UTC 2016-10-09 04:55:15\r\n\r\n Audio\r\n ID : 2\r\n Format : AAC\r\n Format/Info : Advanced Audio Codec\r\n Format profile : LC\r\n Codec ID : 40\r\n Duration : 1h 25mn\r\n Bit rate mode : Constant\r\n Bit rate : 256 Kbps\r\n Channel(s) : 2 channels\r\n Channel positions : Front: L R\r\n Sampling rate : 48.0 KHz\r\n Frame rate : 46.875 fps (1024 spf)\r\n Compression mode : Lossy\r\n Stream size : 154 MiB (4%)\r\n Language : English\r\n Encoded date : UTC 2016-10-09 03:26:19\r\n Tagged date : UTC 2016-10-09 04:55:15",
  "parsed": {
    "xt": "urn:btih:9c2f7b911d28d3ea173922691caed885d702559a",
    "dn": "Formula.1.2016x17.Japan.Race.SkyF1HD.1080p50-smcgill1969",
    "tr": [
      "udp://exodus.desync.com:6969",
      "udp://open.demonii.com:1337",
      "udp://tracker.coppersurfer.tk:6969",
      "udp://tracker.leechers-paradise.org:6969",
      "udp://zer0day.ch:1337"
    ],
    "infoHash": "9c2f7b911d28d3ea173922691caed885d702559a",
    "infoHashBuffer": {
      "type": "Buffer",
      "data": [
        156,
        47,
        123,
        145,
        29,
        40,
        211,
        234,
        23,
        57,
        34,
        105,
        28,
        174,
        216,
        133,
        215,
        2,
        85,
        154
      ]
    },
    "name": "Formula.1.2016x17.Japan.Race.SkyF1HD.1080p50-smcgill1969",
    "announce": [
      "udp://exodus.desync.com:6969",
      "udp://open.demonii.com:1337",
      "udp://tracker.coppersurfer.tk:6969",
      "udp://tracker.leechers-paradise.org:6969",
      "udp://zer0day.ch:1337"
    ],
    "urlList": []
  },
  "previous": 32,
  "peers": 30,
  "last_updated": "2016-12-27T08:14:27.479Z"
}